<svg width="33" height="34" viewBox="0 0 33 34" fill="none" xmlns="http://www.w3.org/2000/svg">
    <path d="M30.9945 5.07182H22.1658V3.28729C22.1658 2.41545 21.8194 1.57931 21.2029 0.962826C20.5864 0.346339 19.7503 0 18.8785 0H13.5249C12.653 0 11.8169 0.346339 11.2004 0.962826C10.5839 1.57931 10.2376 2.41545 10.2376 3.28729V5.07182H1.40884C1.03519 5.07182 0.676848 5.22025 0.412639 5.48446C0.148431 5.74867 0 6.10702 0 6.48066C0 6.85431 0.148431 7.21266 0.412639 7.47686C0.676848 7.74107 1.03519 7.8895 1.40884 7.8895H4.27348V28.8343C4.27348 30.2043 4.81773 31.5182 5.78649 32.487C6.75526 33.4558 8.06919 34 9.43923 34H22.9641C24.3341 34 25.6481 33.4558 26.6168 32.487C27.5856 31.5182 28.1298 30.2043 28.1298 28.8343V7.8895H30.9945C31.3681 7.8895 31.7265 7.74107 31.9907 7.47686C32.2549 7.21266 32.4033 6.85431 32.4033 6.48066C32.4033 6.10702 32.2549 5.74867 31.9907 5.48446C31.7265 5.22025 31.3681 5.07182 30.9945 5.07182ZM13.0553 3.28729C13.0553 3.16274 13.1047 3.0433 13.1928 2.95523C13.2809 2.86716 13.4003 2.81768 13.5249 2.81768H18.8785C19.003 2.81768 19.1225 2.86716 19.2105 2.95523C19.2986 3.0433 19.3481 3.16274 19.3481 3.28729V5.07182H13.0553V3.28729ZM25.2652 28.8812C25.2652 29.504 25.0178 30.1012 24.5775 30.5416C24.1371 30.9819 23.5399 31.2293 22.9171 31.2293H9.43923C8.81648 31.2293 8.21924 30.9819 7.77889 30.5416C7.33855 30.1012 7.09116 29.504 7.09116 28.8812V7.8895H25.3122L25.2652 28.8812Z" fill="black"/>
    <path d="M19.7237 27.8011C20.0974 27.8011 20.4557 27.6527 20.7199 27.3885C20.9841 27.1243 21.1326 26.7659 21.1326 26.3923V12.3508C21.1326 11.9772 20.9841 11.6188 20.7199 11.3546C20.4557 11.0904 20.0974 10.942 19.7237 10.942C19.3501 10.942 18.9917 11.0904 18.7275 11.3546C18.4633 11.6188 18.3149 11.9772 18.3149 12.3508V26.3923C18.3149 26.7659 18.4633 27.1243 18.7275 27.3885C18.9917 27.6527 19.3501 27.8011 19.7237 27.8011Z" fill="black"/>
    <path d="M12.6796 27.8011C13.0532 27.8011 13.4116 27.6527 13.6758 27.3885C13.94 27.1243 14.0884 26.7659 14.0884 26.3923V12.3508C14.0884 11.9772 13.94 11.6188 13.6758 11.3546C13.4116 11.0904 13.0532 10.942 12.6796 10.942C12.3059 10.942 11.9476 11.0904 11.6834 11.3546C11.4192 11.6188 11.2707 11.9772 11.2707 12.3508V26.3923C11.2707 26.7659 11.4192 27.1243 11.6834 27.3885C11.9476 27.6527 12.3059 27.8011 12.6796 27.8011Z" fill="black"/>
</svg>
